HIERARCHY
ROOT SpineBase
{
  OFFSET 0.000000 0.000000 0.000000
  CHANNELS 6 Xposition Yposition Zposition Zrotation Xrotation Yrotation
  JOINT SpineMid
  {
    OFFSET 0.000000 27.098818 0.000000
    CHANNELS 3 Zrotation Xrotation Yrotation
    JOINT SpineShoulder
    {
      OFFSET -0.041691 20.155827 -0.691152
      CHANNELS 3 Zrotation Xrotation Yrotation
      JOINT Neck
      {
        OFFSET -0.036251 6.690493 -0.524561
        CHANNELS 3 Zrotation Xrotation Yrotation
        JOINT Head
        {
          OFFSET 2.104759 12.323209 0.639157
          CHANNELS 3 Zrotation Xrotation Yrotation
          End Site
          {
            OFFSET 0 0 0
          }
        }
      }
      JOINT ShoulderLeft
      {
        OFFSET -12.848364 -2.114196 -7.889751
        CHANNELS 3 Zrotation Xrotation Yrotation
        JOINT ElbowLeft
        {
          OFFSET -3.995620 -21.795389 -3.733226
          CHANNELS 3 Zrotation Xrotation Yrotation
          JOINT WristLeft
          {
            OFFSET 2.266965 -20.316800 -5.291665
            CHANNELS 3 Zrotation Xrotation Yrotation
            JOINT HandLeft
            {
              OFFSET 1.321731 -6.428728 -0.615665
              CHANNELS 3 Zrotation Xrotation Yrotation
              JOINT HandTipLeft
              {
                OFFSET 0.615781 -6.420085 -0.003384
                CHANNELS 3 Zrotation Xrotation Yrotation
                End Site
                {
                  OFFSET 0 0 0
                }
              }
              JOINT ThumbLeft
              {
                OFFSET -3.221114 -0.439455 -1.380155
                CHANNELS 3 Zrotation Xrotation Yrotation
                End Site
                {
                  OFFSET 0 0 0
                }
              }
            }
          }
        }
      }
      JOINT ShoulderRight
      {
        OFFSET 11.039295 -2.764462 3.778726
        CHANNELS 3 Zrotation Xrotation Yrotation
        JOINT ElbowRight
        {
          OFFSET 1.814600 -27.394381 2.618626
          CHANNELS 3 Zrotation Xrotation Yrotation
          JOINT WristRight
          {
            OFFSET 2.863641 -20.286227 -5.932058
            CHANNELS 3 Zrotation Xrotation Yrotation
            JOINT HandRight
            {
              OFFSET -2.108863 -5.452352 -1.217510
              CHANNELS 3 Zrotation Xrotation Yrotation
              JOINT HandTipRight
              {
                OFFSET -0.309538 -4.577896 -0.127560
                CHANNELS 3 Zrotation Xrotation Yrotation
                End Site
                {
                  OFFSET 0 0 0
                }
              }
              JOINT ThumbRight
              {
                OFFSET -2.720922 1.425838 -3.176462
                CHANNELS 3 Zrotation Xrotation Yrotation
                End Site
                {
                  OFFSET 0 0 0
                }
              }
            }
          }
        }
      }
    }
  }
  JOINT HipLeft
  {
    OFFSET -5.860816 0.982684 -5.553453
    CHANNELS 3 Zrotation Xrotation Yrotation
    JOINT KneeLeft
    {
      OFFSET -4.856036 -29.358170 -1.128018
      CHANNELS 3 Zrotation Xrotation Yrotation
      JOINT AnkleLeft
      {
        OFFSET -0.041919 -32.685851 7.296343
        CHANNELS 3 Zrotation Xrotation Yrotation
        JOINT FootLeft
        {
          OFFSET 3.077482 -2.214240 -9.704369
          CHANNELS 3 Zrotation Xrotation Yrotation
          End Site
          {
            OFFSET 0 0 0
          }
        }
      }
    }
  }
  JOINT HipRight
  {
    OFFSET 5.441213 0.651835 -0.731361
    CHANNELS 3 Zrotation Xrotation Yrotation
    JOINT KneeRight
    {
      OFFSET -3.507008 -27.308804 -0.354631
      CHANNELS 3 Zrotation Xrotation Yrotation
      JOINT AnkleRight
      {
        OFFSET -6.912741 -35.526798 4.138530
        CHANNELS 3 Zrotation Xrotation Yrotation
        JOINT FootRight
        {
          OFFSET 2.025909 -3.959199 -5.043952
          CHANNELS 3 Zrotation Xrotation Yrotation
          End Site
          {
            OFFSET 0 0 0
          }
        }
      }
    }
  }
}
MOTION
Frames: 6
Frame Time: 0.033333
22.950452 67.425236 367.799402 -3.916555 1.245956 -14.951737 0.048189 0.192919 14.873106 -0.141276 0.035362 -0.175501 10.579364 -1.947903 0.299334 0.000000 0.000000 0.000000 3.306313 -3.071645 0.741879 -0.668587 1.113570 -0.098980 -0.186577 -2.963188 -0.907716 -1.744079 2.859256 0.652257 0.000000 0.000000 0.000000 0.000000 0.000000 0.000000 22.894300 18.407560 0.657777 -24.033936 69.012925 11.337108 38.369322 -49.016732 6.478392 -56.799190 23.287754 2.274935 0.000000 0.000000 0.000000 0.000000 0.000000 0.000000 8.891206 -0.213976 15.049636 -6.320143 1.797203 -0.316245 -6.726908 -25.311044 -12.547738 0.000000 0.000000 0.000000 7.922989 -3.847804 15.683352 -2.696874 4.545921 -0.440444 -1.631738 21.308699 10.854430 0.000000 0.000000 0.000000
22.960263 67.447366 367.801634 -3.907277 1.235303 -14.739573 0.038354 0.169854 14.659349 -0.129973 0.027195 -0.175163 10.786292 -1.777650 0.257788 0.000000 0.000000 0.000000 3.241786 -3.073890 0.755853 -0.495031 1.385657 -0.120257 -0.403277 -3.089490 -0.876998 -2.030341 4.000149 0.793580 0.000000 0.000000 0.000000 0.000000 0.000000 0.000000 23.058220 18.449530 0.633175 -24.143033 68.992740 11.260675 38.392634 -48.982745 6.473602 -56.802242 23.285515 2.273694 0.000000 0.000000 0.000000 0.000000 0.000000 0.000000 8.852390 -0.249010 14.840497 -6.250213 1.799345 -0.309696 -4.504305 -20.429005 -8.768112 0.000000 0.000000 0.000000 7.893870 -3.876937 15.472508 -2.693305 3.734761 -0.281752 0.084639 23.228797 9.056267 0.000000 0.000000 0.000000
22.964559 67.466321 367.802256 -3.907008 1.238602 -14.585446 0.028699 0.162827 14.504695 -0.120525 0.032739 -0.174584 10.933472 -1.792159 0.257552 0.000000 0.000000 0.000000 3.180956 -3.060323 0.761020 -0.349899 1.444164 -0.142826 -0.307233 -3.250620 -0.896011 -0.755775 4.204522 0.752864 0.000000 0.000000 0.000000 0.000000 0.000000 0.000000 23.062401 18.368599 0.642907 -24.196301 69.057477 11.316553 38.384542 -48.975016 6.465055 -56.803473 23.284907 2.273238 0.000000 0.000000 0.000000 0.000000 0.000000 0.000000 8.852766 -0.264135 14.686191 -6.208946 1.804834 -0.299403 -2.721230 -15.618763 -5.664661 0.000000 0.000000 0.000000 7.914524 -3.777284 15.301625 -2.734119 3.537422 -0.249139 2.373116 24.642692 6.727184 0.000000 0.000000 0.000000
22.959161 67.469433 367.794796 -3.918907 1.261666 -14.452988 0.017281 0.169117 14.372723 -0.112123 0.049339 -0.174042 11.061736 -2.040142 0.310621 0.000000 0.000000 0.000000 3.110356 -3.089235 0.770421 -0.220923 1.511342 -0.156974 0.655516 -2.981922 -0.886439 -1.972324 4.307208 0.860106 0.000000 0.000000 0.000000 0.000000 0.000000 0.000000 22.992634 18.462785 0.652148 -24.054689 68.952029 11.251468 38.393249 -49.008747 6.487349 -56.803283 23.284805 2.273224 0.000000 0.000000 0.000000 0.000000 0.000000 0.000000 8.900334 -0.282656 14.554365 -6.153686 1.776860 -0.278792 -1.648800 -11.868296 -3.286463 0.000000 0.000000 0.000000 7.940718 -3.690883 15.154037 -2.749707 3.330188 -0.214970 7.031191 27.319499 2.097868 0.000000 0.000000 0.000000
22.948282 67.459714 367.778562 -3.931741 1.288405 -14.363426 0.010536 0.178439 14.284065 -0.096394 0.060134 -0.172854 11.155510 -2.408807 0.392212 0.000000 0.000000 0.000000 3.187760 -3.054757 0.746743 -0.195173 1.552698 -0.143212 1.189616 -2.651809 -0.822579 -2.194710 5.329965 0.967453 0.000000 0.000000 0.000000 0.000000 0.000000 0.000000 22.776329 18.678084 0.655684 -23.614600 68.665037 11.040997 38.297417 -49.005945 6.433011 -56.801995 23.286230 2.273903 0.000000 0.000000 0.000000 0.000000 0.000000 0.000000 8.963602 -0.306517 14.467448 -6.146068 1.794886 -0.265564 -1.059350 -9.255646 -1.238334 0.000000 0.000000 0.000000 7.963171 -3.648002 15.056504 -2.728690 3.186320 -0.189493 2.179272 27.465688 7.720845 0.000000 0.000000 0.000000
22.939094 67.452511 367.760081 -3.926642 1.301431 -14.280900 0.014715 0.180964 14.202378 -0.075381 0.064232 -0.170330 11.080622 -2.784733 0.477361 0.000000 0.000000 0.000000 3.264541 -2.979578 0.713474 -0.155410 1.602892 -0.132547 1.398504 -2.244176 -0.711510 -1.467666 5.292779 0.860706 0.000000 0.000000 0.000000 0.000000 0.000000 0.000000 22.472741 18.962888 0.645495 -22.975838 68.249347 10.708685 38.087880 -48.938457 6.282578 -56.799738 23.288261 2.274902 0.000000 0.000000 0.000000 0.000000 0.000000 0.000000 8.993406 -0.302349 14.381699 -6.101539 1.790386 -0.244877 -0.991319 -8.656463 -0.899951 0.000000 0.000000 0.000000 7.931831 -3.605370 14.964122 -2.681097 3.041484 -0.165764 0.367662 22.447562 8.108618 0.000000 0.000000 0.000000
